<svg width="243" height="420" viewBox="0 0 243 420" fill="none" xmlns="http://www.w3.org/2000/svg">
<circle cx="6.61701" cy="86.4023" r="4.52273" transform="rotate(-89.5586 6.61701 86.4023)" fill="#6495F4"/>
<circle cx="106.114" cy="87.1688" r="4.52273" transform="rotate(-89.5586 106.114 87.1688)" fill="#6495F4"/>
<circle cx="40.5369" cy="86.6635" r="4.52273" transform="rotate(-89.5586 40.5369 86.6635)" fill="#6495F4"/>
<circle cx="140.033" cy="87.4301" r="4.52273" transform="rotate(-89.5586 140.033 87.4301)" fill="#6495F4"/>
<circle cx="74.4559" cy="86.9249" r="4.52273" transform="rotate(-89.5586 74.4559 86.9249)" fill="#6495F4"/>
<circle cx="173.953" cy="87.6914" r="4.52273" transform="rotate(-89.5586 173.953 87.6914)" fill="#6495F4"/>
<circle cx="205.611" cy="87.9353" r="4.52273" transform="rotate(-89.5586 205.611 87.9353)" fill="#6495F4"/>
<circle cx="237.269" cy="88.1793" r="4.52273" transform="rotate(-89.5586 237.269 88.1793)" fill="#6495F4"/>
<circle cx="5.784" cy="194.581" r="4.52273" transform="rotate(-89.5586 5.784 194.581)" fill="#6495F4"/>
<circle cx="105.281" cy="195.347" r="4.52273" transform="rotate(-89.5586 105.281 195.347)" fill="#6495F4"/>
<circle cx="39.7039" cy="194.842" r="4.52273" transform="rotate(-89.5586 39.7039 194.842)" fill="#6495F4"/>
<circle cx="139.2" cy="195.609" r="4.52273" transform="rotate(-89.5586 139.2 195.609)" fill="#6495F4"/>
<circle cx="73.6229" cy="195.103" r="4.52273" transform="rotate(-89.5586 73.6229 195.103)" fill="#6495F4"/>
<circle cx="173.12" cy="195.87" r="4.52273" transform="rotate(-89.5586 173.12 195.87)" fill="#6495F4"/>
<circle cx="204.778" cy="196.114" r="4.52273" transform="rotate(-89.5586 204.778 196.114)" fill="#6495F4"/>
<circle cx="236.436" cy="196.358" r="4.52273" transform="rotate(-89.5586 236.436 196.358)" fill="#6495F4"/>
<circle cx="7.034" cy="32.313" r="4.52273" transform="rotate(-89.5586 7.034 32.313)" fill="#6495F4"/>
<circle cx="106.531" cy="33.0798" r="4.52273" transform="rotate(-89.5586 106.531 33.0798)" fill="#6495F4"/>
<circle cx="40.9539" cy="32.5745" r="4.52273" transform="rotate(-89.5586 40.9539 32.5745)" fill="#6495F4"/>
<circle cx="140.45" cy="33.3411" r="4.52273" transform="rotate(-89.5586 140.45 33.3411)" fill="#6495F4"/>
<circle cx="74.8729" cy="32.8359" r="4.52273" transform="rotate(-89.5586 74.8729 32.8359)" fill="#6495F4"/>
<circle cx="174.37" cy="33.6024" r="4.52273" transform="rotate(-89.5586 174.37 33.6024)" fill="#6495F4"/>
<circle cx="206.028" cy="33.8464" r="4.52273" transform="rotate(-89.5586 206.028 33.8464)" fill="#6495F4"/>
<circle cx="237.686" cy="34.0903" r="4.52273" transform="rotate(-89.5586 237.686 34.0903)" fill="#6495F4"/>
<circle cx="6.20099" cy="140.491" r="4.52273" transform="rotate(-89.5586 6.20099 140.491)" fill="#6495F4"/>
<circle cx="105.698" cy="141.258" r="4.52273" transform="rotate(-89.5586 105.698 141.258)" fill="#6495F4"/>
<circle cx="40.1209" cy="140.753" r="4.52273" transform="rotate(-89.5586 40.1209 140.753)" fill="#6495F4"/>
<circle cx="139.617" cy="141.52" r="4.52273" transform="rotate(-89.5586 139.617 141.52)" fill="#6495F4"/>
<circle cx="74.0399" cy="141.014" r="4.52273" transform="rotate(-89.5586 74.0399 141.014)" fill="#6495F4"/>
<circle cx="173.537" cy="141.781" r="4.52273" transform="rotate(-89.5586 173.537 141.781)" fill="#6495F4"/>
<circle cx="205.195" cy="142.025" r="4.52273" transform="rotate(-89.5586 205.195 142.025)" fill="#6495F4"/>
<circle cx="236.853" cy="142.269" r="4.52273" transform="rotate(-89.5586 236.853 142.269)" fill="#6495F4"/>
<circle cx="6.82599" cy="59.3576" r="4.52273" transform="rotate(-89.5586 6.82599 59.3576)" fill="#6495F4"/>
<circle cx="106.323" cy="60.124" r="4.52273" transform="rotate(-89.5586 106.323 60.124)" fill="#6495F4"/>
<circle cx="40.7459" cy="59.6188" r="4.52273" transform="rotate(-89.5586 40.7459 59.6188)" fill="#6495F4"/>
<circle cx="140.242" cy="60.3854" r="4.52273" transform="rotate(-89.5586 140.242 60.3854)" fill="#6495F4"/>
<circle cx="74.6649" cy="59.8801" r="4.52273" transform="rotate(-89.5586 74.6649 59.8801)" fill="#6495F4"/>
<circle cx="174.162" cy="60.6467" r="4.52273" transform="rotate(-89.5586 174.162 60.6467)" fill="#6495F4"/>
<circle cx="205.82" cy="60.8906" r="4.52273" transform="rotate(-89.5586 205.82 60.8906)" fill="#6495F4"/>
<circle cx="237.478" cy="61.1345" r="4.52273" transform="rotate(-89.5586 237.478 61.1345)" fill="#6495F4"/>
<circle cx="5.99201" cy="167.536" r="4.52273" transform="rotate(-89.5586 5.99201 167.536)" fill="#6495F4"/>
<circle cx="105.489" cy="168.303" r="4.52273" transform="rotate(-89.5586 105.489 168.303)" fill="#6495F4"/>
<circle cx="39.9119" cy="167.797" r="4.52273" transform="rotate(-89.5586 39.9119 167.797)" fill="#6495F4"/>
<circle cx="139.408" cy="168.564" r="4.52273" transform="rotate(-89.5586 139.408 168.564)" fill="#6495F4"/>
<circle cx="73.8309" cy="168.059" r="4.52273" transform="rotate(-89.5586 73.8309 168.059)" fill="#6495F4"/>
<circle cx="173.328" cy="168.825" r="4.52273" transform="rotate(-89.5586 173.328 168.825)" fill="#6495F4"/>
<circle cx="204.986" cy="169.069" r="4.52273" transform="rotate(-89.5586 204.986 169.069)" fill="#6495F4"/>
<circle cx="236.644" cy="169.313" r="4.52273" transform="rotate(-89.5586 236.644 169.313)" fill="#6495F4"/>
<circle cx="7.24298" cy="5.26845" r="4.52273" transform="rotate(-89.5586 7.24298 5.26845)" fill="#6495F4"/>
<circle cx="106.74" cy="6.03505" r="4.52273" transform="rotate(-89.5586 106.74 6.03505)" fill="#6495F4"/>
<circle cx="41.1629" cy="5.52983" r="4.52273" transform="rotate(-89.5586 41.1629 5.52983)" fill="#6495F4"/>
<circle cx="140.659" cy="6.2964" r="4.52273" transform="rotate(-89.5586 140.659 6.2964)" fill="#6495F4"/>
<circle cx="75.0818" cy="5.79115" r="4.52273" transform="rotate(-89.5586 75.0818 5.79115)" fill="#6495F4"/>
<circle cx="174.579" cy="6.55772" r="4.52273" transform="rotate(-89.5586 174.579 6.55772)" fill="#6495F4"/>
<circle cx="206.237" cy="6.80162" r="4.52273" transform="rotate(-89.5586 206.237 6.80162)" fill="#6495F4"/>
<circle cx="237.895" cy="7.04555" r="4.52273" transform="rotate(-89.5586 237.895 7.04555)" fill="#6495F4"/>
<circle cx="6.409" cy="113.447" r="4.52273" transform="rotate(-89.5586 6.409 113.447)" fill="#6495F4"/>
<circle cx="105.906" cy="114.214" r="4.52273" transform="rotate(-89.5586 105.906 114.214)" fill="#6495F4"/>
<circle cx="40.3289" cy="113.708" r="4.52273" transform="rotate(-89.5586 40.3289 113.708)" fill="#6495F4"/>
<circle cx="139.825" cy="114.475" r="4.52273" transform="rotate(-89.5586 139.825 114.475)" fill="#6495F4"/>
<circle cx="74.2479" cy="113.97" r="4.52273" transform="rotate(-89.5586 74.2479 113.97)" fill="#6495F4"/>
<circle cx="173.745" cy="114.736" r="4.52273" transform="rotate(-89.5586 173.745 114.736)" fill="#6495F4"/>
<circle cx="205.403" cy="114.98" r="4.52273" transform="rotate(-89.5586 205.403 114.98)" fill="#6495F4"/>
<circle cx="237.061" cy="115.224" r="4.52273" transform="rotate(-89.5586 237.061 115.224)" fill="#6495F4"/>
<circle cx="5.39045" cy="304.691" r="4.52273" transform="rotate(-89.5586 5.39045 304.691)" fill="#6495F4"/>
<circle cx="104.888" cy="305.458" r="4.52273" transform="rotate(-89.5586 104.888 305.458)" fill="#6495F4"/>
<circle cx="39.3104" cy="304.953" r="4.52273" transform="rotate(-89.5586 39.3104 304.953)" fill="#6495F4"/>
<circle cx="138.806" cy="305.719" r="4.52273" transform="rotate(-89.5586 138.806 305.719)" fill="#6495F4"/>
<circle cx="73.2293" cy="305.214" r="4.52273" transform="rotate(-89.5586 73.2293 305.214)" fill="#6495F4"/>
<circle cx="172.726" cy="305.98" r="4.52273" transform="rotate(-89.5586 172.726 305.98)" fill="#6495F4"/>
<circle cx="204.385" cy="306.224" r="4.52273" transform="rotate(-89.5586 204.385 306.224)" fill="#6495F4"/>
<circle cx="236.043" cy="306.468" r="4.52273" transform="rotate(-89.5586 236.043 306.468)" fill="#6495F4"/>
<circle cx="4.55744" cy="412.87" r="4.52273" transform="rotate(-89.5586 4.55744 412.87)" fill="#6495F4"/>
<circle cx="104.055" cy="413.636" r="4.52273" transform="rotate(-89.5586 104.055 413.636)" fill="#6495F4"/>
<circle cx="38.4774" cy="413.131" r="4.52273" transform="rotate(-89.5586 38.4774 413.131)" fill="#6495F4"/>
<circle cx="137.973" cy="413.898" r="4.52273" transform="rotate(-89.5586 137.973 413.898)" fill="#6495F4"/>
<circle cx="72.3963" cy="413.392" r="4.52273" transform="rotate(-89.5586 72.3963 413.392)" fill="#6495F4"/>
<circle cx="171.893" cy="414.159" r="4.52273" transform="rotate(-89.5586 171.893 414.159)" fill="#6495F4"/>
<circle cx="203.552" cy="414.403" r="4.52273" transform="rotate(-89.5586 203.552 414.403)" fill="#6495F4"/>
<circle cx="235.21" cy="414.647" r="4.52273" transform="rotate(-89.5586 235.21 414.647)" fill="#6495F4"/>
<circle cx="5.80744" cy="250.602" r="4.52273" transform="rotate(-89.5586 5.80744 250.602)" fill="#6495F4"/>
<circle cx="105.305" cy="251.369" r="4.52273" transform="rotate(-89.5586 105.305 251.369)" fill="#6495F4"/>
<circle cx="39.7274" cy="250.864" r="4.52273" transform="rotate(-89.5586 39.7274 250.864)" fill="#6495F4"/>
<circle cx="139.223" cy="251.63" r="4.52273" transform="rotate(-89.5586 139.223 251.63)" fill="#6495F4"/>
<circle cx="73.6463" cy="251.125" r="4.52273" transform="rotate(-89.5586 73.6463 251.125)" fill="#6495F4"/>
<circle cx="173.143" cy="251.891" r="4.52273" transform="rotate(-89.5586 173.143 251.891)" fill="#6495F4"/>
<circle cx="204.802" cy="252.135" r="4.52273" transform="rotate(-89.5586 204.802 252.135)" fill="#6495F4"/>
<circle cx="236.46" cy="252.379" r="4.52273" transform="rotate(-89.5586 236.46 252.379)" fill="#6495F4"/>
<circle cx="4.97443" cy="358.78" r="4.52273" transform="rotate(-89.5586 4.97443 358.78)" fill="#6495F4"/>
<circle cx="104.471" cy="359.547" r="4.52273" transform="rotate(-89.5586 104.471 359.547)" fill="#6495F4"/>
<circle cx="38.8944" cy="359.042" r="4.52273" transform="rotate(-89.5586 38.8944 359.042)" fill="#6495F4"/>
<circle cx="138.39" cy="359.809" r="4.52273" transform="rotate(-89.5586 138.39 359.809)" fill="#6495F4"/>
<circle cx="72.8133" cy="359.303" r="4.52273" transform="rotate(-89.5586 72.8133 359.303)" fill="#6495F4"/>
<circle cx="172.31" cy="360.07" r="4.52273" transform="rotate(-89.5586 172.31 360.07)" fill="#6495F4"/>
<circle cx="203.969" cy="360.314" r="4.52273" transform="rotate(-89.5586 203.969 360.314)" fill="#6495F4"/>
<circle cx="235.627" cy="360.558" r="4.52273" transform="rotate(-89.5586 235.627 360.558)" fill="#6495F4"/>
<circle cx="5.59943" cy="277.647" r="4.52273" transform="rotate(-89.5586 5.59943 277.647)" fill="#6495F4"/>
<circle cx="105.096" cy="278.413" r="4.52273" transform="rotate(-89.5586 105.096 278.413)" fill="#6495F4"/>
<circle cx="39.5194" cy="277.908" r="4.52273" transform="rotate(-89.5586 39.5194 277.908)" fill="#6495F4"/>
<circle cx="139.015" cy="278.674" r="4.52273" transform="rotate(-89.5586 139.015 278.674)" fill="#6495F4"/>
<circle cx="73.4383" cy="278.169" r="4.52273" transform="rotate(-89.5586 73.4383 278.169)" fill="#6495F4"/>
<circle cx="172.935" cy="278.936" r="4.52273" transform="rotate(-89.5586 172.935 278.936)" fill="#6495F4"/>
<circle cx="204.594" cy="279.18" r="4.52273" transform="rotate(-89.5586 204.594 279.18)" fill="#6495F4"/>
<circle cx="236.252" cy="279.424" r="4.52273" transform="rotate(-89.5586 236.252 279.424)" fill="#6495F4"/>
<circle cx="4.76545" cy="385.825" r="4.52273" transform="rotate(-89.5586 4.76545 385.825)" fill="#6495F4"/>
<circle cx="104.263" cy="386.592" r="4.52273" transform="rotate(-89.5586 104.263 386.592)" fill="#6495F4"/>
<circle cx="38.6854" cy="386.086" r="4.52273" transform="rotate(-89.5586 38.6854 386.086)" fill="#6495F4"/>
<circle cx="138.181" cy="386.853" r="4.52273" transform="rotate(-89.5586 138.181 386.853)" fill="#6495F4"/>
<circle cx="72.6043" cy="386.348" r="4.52273" transform="rotate(-89.5586 72.6043 386.348)" fill="#6495F4"/>
<circle cx="172.101" cy="387.114" r="4.52273" transform="rotate(-89.5586 172.101 387.114)" fill="#6495F4"/>
<circle cx="203.76" cy="387.358" r="4.52273" transform="rotate(-89.5586 203.76 387.358)" fill="#6495F4"/>
<circle cx="235.418" cy="387.602" r="4.52273" transform="rotate(-89.5586 235.418 387.602)" fill="#6495F4"/>
<circle cx="6.01642" cy="223.557" r="4.52273" transform="rotate(-89.5586 6.01642 223.557)" fill="#6495F4"/>
<circle cx="105.513" cy="224.324" r="4.52273" transform="rotate(-89.5586 105.513 224.324)" fill="#6495F4"/>
<circle cx="39.9363" cy="223.819" r="4.52273" transform="rotate(-89.5586 39.9363 223.819)" fill="#6495F4"/>
<circle cx="139.432" cy="224.585" r="4.52273" transform="rotate(-89.5586 139.432 224.585)" fill="#6495F4"/>
<circle cx="73.8553" cy="224.08" r="4.52273" transform="rotate(-89.5586 73.8553 224.08)" fill="#6495F4"/>
<circle cx="173.352" cy="224.847" r="4.52273" transform="rotate(-89.5586 173.352 224.847)" fill="#6495F4"/>
<circle cx="205.011" cy="225.091" r="4.52273" transform="rotate(-89.5586 205.011 225.091)" fill="#6495F4"/>
<circle cx="236.669" cy="225.335" r="4.52273" transform="rotate(-89.5586 236.669 225.335)" fill="#6495F4"/>
<circle cx="5.18244" cy="331.736" r="4.52273" transform="rotate(-89.5586 5.18244 331.736)" fill="#6495F4"/>
<circle cx="104.68" cy="332.503" r="4.52273" transform="rotate(-89.5586 104.68 332.503)" fill="#6495F4"/>
<circle cx="39.1024" cy="331.997" r="4.52273" transform="rotate(-89.5586 39.1024 331.997)" fill="#6495F4"/>
<circle cx="138.598" cy="332.764" r="4.52273" transform="rotate(-89.5586 138.598 332.764)" fill="#6495F4"/>
<circle cx="73.0213" cy="332.259" r="4.52273" transform="rotate(-89.5586 73.0213 332.259)" fill="#6495F4"/>
<circle cx="172.518" cy="333.025" r="4.52273" transform="rotate(-89.5586 172.518 333.025)" fill="#6495F4"/>
<circle cx="204.177" cy="333.269" r="4.52273" transform="rotate(-89.5586 204.177 333.269)" fill="#6495F4"/>
<circle cx="235.835" cy="333.513" r="4.52273" transform="rotate(-89.5586 235.835 333.513)" fill="#6495F4"/>
</svg>
