<svg id="Layer_1" data-name="Layer 1" xmlns="http://www.w3.org/2000/svg" viewBox="0 0 120.96 203.88"><defs><style>.cls-1{fill:#e9b83e;}</style></defs><circle class="cls-1" cx="3" cy="3.88" r="3"/><circle class="cls-1" cx="3" cy="25.88" r="3"/><circle class="cls-1" cx="3" cy="46.88" r="3"/><circle class="cls-1" cx="3" cy="68.88" r="3"/><circle class="cls-1" cx="3" cy="90.88" r="3"/><circle class="cls-1" cx="3" cy="111.88" r="3"/><circle class="cls-1" cx="3" cy="133.88" r="3"/><circle class="cls-1" cx="3" cy="155.88" r="3"/><circle class="cls-1" cx="3" cy="176.88" r="3"/><circle class="cls-1" cx="3" cy="198.88" r="3"/><circle class="cls-1" cx="26" cy="3.88" r="3"/><circle class="cls-1" cx="26" cy="25.88" r="3"/><circle class="cls-1" cx="26" cy="46.88" r="3"/><circle class="cls-1" cx="26" cy="68.88" r="3"/><circle class="cls-1" cx="26" cy="90.88" r="3"/><circle class="cls-1" cx="26" cy="111.88" r="3"/><circle class="cls-1" cx="26" cy="133.88" r="3"/><circle class="cls-1" cx="26" cy="155.88" r="3"/><circle class="cls-1" cx="26" cy="176.88" r="3"/><circle class="cls-1" cx="26" cy="198.88" r="3"/><circle class="cls-1" cx="49" cy="3.6" r="3"/><circle class="cls-1" cx="49" cy="25.6" r="3"/><circle class="cls-1" cx="49" cy="46.6" r="3"/><circle class="cls-1" cx="49" cy="68.6" r="3"/><circle class="cls-1" cx="49" cy="90.6" r="3"/><circle class="cls-1" cx="49" cy="111.6" r="3"/><circle class="cls-1" cx="49" cy="133.6" r="3"/><circle class="cls-1" cx="49" cy="155.6" r="3"/><circle class="cls-1" cx="49" cy="176.6" r="3"/><circle class="cls-1" cx="49" cy="198.6" r="3"/><circle class="cls-1" cx="72" cy="3.88" r="3"/><circle class="cls-1" cx="72" cy="25.88" r="3"/><circle class="cls-1" cx="72" cy="47.88" r="3"/><circle class="cls-1" cx="72" cy="68.88" r="3"/><circle class="cls-1" cx="72" cy="90.88" r="3"/><circle class="cls-1" cx="72" cy="112.88" r="3"/><circle class="cls-1" cx="72" cy="134.88" r="3"/><circle class="cls-1" cx="72" cy="155.88" r="3"/><circle class="cls-1" cx="72" cy="177.88" r="3"/><circle class="cls-1" cx="72" cy="199.88" r="3"/><circle class="cls-1" cx="95.36" cy="4.88" r="3"/><circle class="cls-1" cx="95.36" cy="26.88" r="3"/><circle class="cls-1" cx="95.36" cy="48.88" r="3"/><circle class="cls-1" cx="95.36" cy="69.88" r="3"/><circle class="cls-1" cx="95.36" cy="91.88" r="3"/><circle class="cls-1" cx="95.36" cy="113.88" r="3"/><circle class="cls-1" cx="95.36" cy="135.88" r="3"/><circle class="cls-1" cx="95.36" cy="156.88" r="3"/><circle class="cls-1" cx="95.36" cy="178.88" r="3"/><circle class="cls-1" cx="95.36" cy="200.88" r="3"/><circle class="cls-1" cx="117.96" cy="3" r="3"/><circle class="cls-1" cx="117.96" cy="25" r="3"/><circle class="cls-1" cx="117.96" cy="47" r="3"/><circle class="cls-1" cx="117.96" cy="68" r="3"/><circle class="cls-1" cx="117.96" cy="90" r="3"/><circle class="cls-1" cx="117.96" cy="112" r="3"/><circle class="cls-1" cx="117.96" cy="134" r="3"/><circle class="cls-1" cx="117.96" cy="155" r="3"/><circle class="cls-1" cx="117.96" cy="177" r="3"/><circle class="cls-1" cx="117.96" cy="199" r="3"/></svg>