<svg id="Layer_1" data-name="Layer 1" xmlns="http://www.w3.org/2000/svg" viewBox="0 0 242 201"><defs><style>.cls-1{fill:#ffda55;}</style></defs><circle class="cls-1" cx="5.62" cy="86.4" r="4.52"/><circle class="cls-1" cx="105.11" cy="87.17" r="4.52"/><circle class="cls-1" cx="39.54" cy="86.66" r="4.52"/><circle class="cls-1" cx="139.03" cy="87.43" r="4.52"/><circle class="cls-1" cx="73.46" cy="86.92" r="4.52"/><circle class="cls-1" cx="172.95" cy="87.69" r="4.52"/><circle class="cls-1" cx="204.61" cy="87.94" r="4.52"/><circle class="cls-1" cx="236.27" cy="88.18" r="4.52"/><circle class="cls-1" cx="4.78" cy="194.58" r="4.52"/><circle class="cls-1" cx="104.28" cy="195.35" r="4.52"/><circle class="cls-1" cx="38.7" cy="194.84" r="4.52"/><circle class="cls-1" cx="138.2" cy="195.61" r="4.52"/><circle class="cls-1" cx="72.62" cy="195.1" r="4.52" transform="translate(-123.03 266.22) rotate(-89.56)"/><circle class="cls-1" cx="172.12" cy="195.87" r="4.52"/><circle class="cls-1" cx="203.78" cy="196.11" r="4.52"/><circle class="cls-1" cx="235.44" cy="196.36" r="4.52"/><circle class="cls-1" cx="6.03" cy="32.31" r="4.52"/><circle class="cls-1" cx="105.53" cy="33.08" r="4.52"/><circle class="cls-1" cx="39.95" cy="32.57" r="4.52"/><circle class="cls-1" cx="139.45" cy="33.34" r="4.52"/><circle class="cls-1" cx="73.87" cy="32.84" r="4.52"/><circle class="cls-1" cx="173.37" cy="33.6" r="4.52"/><circle class="cls-1" cx="205.03" cy="33.85" r="4.52"/><circle class="cls-1" cx="236.69" cy="34.09" r="4.52"/><circle class="cls-1" cx="5.2" cy="140.49" r="4.52"/><circle class="cls-1" cx="104.7" cy="141.26" r="4.52" transform="translate(-37.36 244.86) rotate(-89.56)"/><circle class="cls-1" cx="39.12" cy="140.75" r="4.52"/><circle class="cls-1" cx="138.62" cy="141.52" r="4.52"/><circle class="cls-1" cx="73.04" cy="141.01" r="4.52" transform="translate(-68.53 212.97) rotate(-89.56)"/><circle class="cls-1" cx="172.54" cy="141.78" r="4.52"/><circle class="cls-1" cx="204.2" cy="142.02" r="4.52"/><circle class="cls-1" cx="235.85" cy="142.27" r="4.52"/><circle class="cls-1" cx="5.83" cy="59.36" r="4.52"/><circle class="cls-1" cx="105.32" cy="60.12" r="4.52"/><circle class="cls-1" cx="39.75" cy="59.62" r="4.52"/><circle class="cls-1" cx="139.24" cy="60.39" r="4.52" transform="translate(77.79 199.16) rotate(-89.56)"/><circle class="cls-1" cx="73.66" cy="59.88" r="4.52"/><circle class="cls-1" cx="173.16" cy="60.65" r="4.52"/><circle class="cls-1" cx="204.82" cy="60.89" r="4.52"/><circle class="cls-1" cx="236.48" cy="61.13" r="4.52"/><circle class="cls-1" cx="4.99" cy="167.54" r="4.52"/><circle class="cls-1" cx="104.49" cy="168.3" r="4.52" transform="translate(-64.61 271.49) rotate(-89.56)"/><circle class="cls-1" cx="38.91" cy="167.8" r="4.52"/><circle class="cls-1" cx="138.41" cy="168.56" r="4.52"/><circle class="cls-1" cx="72.83" cy="168.06" r="4.52" transform="translate(-95.78 239.59) rotate(-89.56)"/><circle class="cls-1" cx="172.33" cy="168.82" r="4.52"/><circle class="cls-1" cx="203.99" cy="169.07" r="4.52"/><circle class="cls-1" cx="235.64" cy="169.31" r="4.52"/><circle class="cls-1" cx="6.24" cy="5.27" r="4.52"/><circle class="cls-1" cx="105.74" cy="6.04" r="4.52"/><circle class="cls-1" cx="40.16" cy="5.53" r="4.52"/><circle class="cls-1" cx="139.66" cy="6.3" r="4.52"/><circle class="cls-1" cx="74.08" cy="5.79" r="4.52"/><circle class="cls-1" cx="173.58" cy="6.56" r="4.52"/><circle class="cls-1" cx="205.24" cy="6.8" r="4.52"/><circle class="cls-1" cx="236.9" cy="7.05" r="4.52"/><circle class="cls-1" cx="5.41" cy="113.45" r="4.52"/><circle class="cls-1" cx="104.91" cy="114.21" r="4.52"/><circle class="cls-1" cx="39.33" cy="113.71" r="4.52"/><circle class="cls-1" cx="138.82" cy="114.47" r="4.52"/><circle class="cls-1" cx="73.25" cy="113.97" r="4.52"/><circle class="cls-1" cx="172.74" cy="114.74" r="4.52"/><circle class="cls-1" cx="204.4" cy="114.98" r="4.52"/><circle class="cls-1" cx="236.06" cy="115.22" r="4.52"/></svg>