<svg id="Layer_1" data-name="Layer 1" xmlns="http://www.w3.org/2000/svg" viewBox="0 0 564.47 128.42"><defs><style>.cls-1{fill:#221a0e;}</style></defs><path class="cls-1" d="M149.77,41.53c-.41,2.28-2.37,3.08-4.22,3.5-1.48.33-3.16-.46-2.88-2.38.33-2.27,2.24-3.07,4.34-3.32a2.26,2.26,0,0,1,2.71,1.72A2,2,0,0,1,149.77,41.53Z" transform="translate(-0.01 0.02)"/><path class="cls-1" d="M247.6,23c4.91-6.54,9.4-12.5,13.85-18.49.85-1.14,2.37-2.52.82-3.87-1.75-1.53-3,.07-4.06,1.4-2.92,3.83-5.9,7.62-8.66,11.56C242,24.4,242,24.43,228.7,23.33a2.09,2.09,0,0,0-.5,0c-2.89.09-3.1-1-1.53-3.17,2.11-3,4-6.08,6-9.15.67-1.06.92-2.4-.09-3.22-1.3-1.06-2.1.29-2.74,1.19a98.18,98.18,0,0,0-6.79,9.84c-1.88,3.41-4.54,4.55-8.14,4.46-4.66-.11-9.33-.16-14-.21-1.65,0-4-.24-4.14,1.72-.12,2.47,2.39,1.56,3.85,1.58,5.51.08,11,0,17.09,0C212,35.18,206,42.87,202.13,51.69c-2,4.64-5.76,6.1-9.8,7.52-3.21,1.13-4.27-.39-3.76-3.51.6-3.68,2.63-6.77,4.05-10.11.46-1.07.8-2.44-.25-3.25s-2.27-.27-3,.79c-2.94,4.26-7.06,5.57-12,5.21a6.72,6.72,0,0,0-3.8,1c-8.79,5.54-19.14,7.33-28.32,11.9-2.28,1.14-4.38,2.9-7.54,2.88,1.44-2.87,2.82-5.31,3.9-7.88.78-1.85,2.75-4.14.18-5.77s-4,.86-5,2.64c-2.15,3.61-5.75,4.85-9.35,6.08-3.19,1.1-4.28-.33-3.79-3.49s2.11-5.91,3.42-8.77c.7-1.54,1.85-3.36.36-4.55-1.75-1.4-3.06.56-4,1.79-2.44,3.21-5.55,4-9.5,4.08-5.76.06-10.48,2.91-14.25,7.21-1.34,1.54-2.47,3.14-1.1,5.35,1.23,2,3,1.6,4.86,1.53s3.39-1.21,5-2.13l10.82-6.34c.21,3.87-1.37,8,4,8.73,3.71.49,6.91-1.58,11.2-2.67-2.39,6.21-5.82,10.34-10.81,13.3a124.08,124.08,0,0,0-25.36,20.3,40.18,40.18,0,0,0-7.09,9c-.9,1.69-1.26,3.61.18,5.14a4,4,0,0,0,5,.76c1.18-.6,2.44-1.06,3.59-1.73,10.15-5.89,17.58-14.58,24.57-23.76,2.9-3.8,5-8.3,9.39-10.83a136.54,136.54,0,0,1,25.7-11.92c1.1-.36,2.36-1.62,3.5.12,2.53,3.85,5.76,2.42,8.7.85,4.06-2.17,7.94-4.67,12.07-7.14.2,8.89,2.54,10.42,10.79,7.51a5.83,5.83,0,0,0,.94-.34c2.26-1.34,2.71-.51,2.78,1.86.18,6.3,2.28,7.72,8.12,5.49,3.48-1.33,6.8-3.09,11.55-5.28-1,2.11-1.41,2.81-1.7,3.55-.65,1.67-1.81,3.62.29,4.87,1.74,1,3.07-.55,4.26-1.67,2.79-2.62,5.45-5.38,8.31-7.92,4.55-4,8.34-9.07,14.47-11.45.36,2.88-.26,5.42-.63,8-.71,4.92,1.92,6.91,6.52,4.86,3.32-1.48,6.51-3.29,9.72-5,1.26-.68,3.24-1.43,2.49-3.13-1-2.3-2.95-.56-4.29,0-3.55,1.39-6.56,4.07-10.75,4.79.06-1.14.07-1.79.15-2.43.45-3.6,3.38-8.06-.65-10.49s-7.19,1.77-10.39,4l-.42.27c-3.64,2.66-6.34,6.5-10.69,8.4,5.95-11.12,12.75-21.64,19.72-32.06,1.2-1.8,2.83-1.37,4.43-1.44,7.15-.35,14.3-.64,21.45-1,2.22-.13,4.62-.08,6.5-2.72C267.06,20.53,257.64,24.28,247.6,23ZM104.38,58.2c.43-3.82,4.9-6.48,12.42-6.94C112.44,54.75,108.7,56.94,104.38,58.2Zm16.39,23.73c-6.49,8-13.33,15.63-22.33,20.93-1,.57-2.25,2.22-3.41.68-.84-1.11.56-2,1.34-2.85a183.41,183.41,0,0,1,22-20.07c.72-.54,1.38-1.58,2.52-1.06.37.18.57.74.85,1.11C121.36,81.13,121.08,81.53,120.77,81.93ZM169,58.22c1.53-4.15,5.39-6.36,12.9-7.06C177.42,54.74,173.67,57.08,169,58.22Zm54.64-5c-4.21,6.31-11.12,9.9-18.08,12.75-3.29,1.35-4.7-.38-3.94-3.8a44.16,44.16,0,0,1,4.71-11.46A216.51,216.51,0,0,1,220.3,29c1.39-2,2.78-2.92,5.26-2.82,4.82.19,9.65.05,15.37.05-6.39,9.35-11.51,18.44-17.32,27.06Z" transform="translate(-0.01 0.02)"/><path class="cls-1" d="M561.07,21.85c-11.66,1.85-23.39-.55-35.05.72-3,.32-6,.53-8.95.66-1.09,0-2.51.55-3.25-.5-.85-1.24.54-2.1,1.12-3,1.84-2.94,3.81-5.82,5.68-8.76.67-1,.89-2.41-.13-3.2-1.32-1-2.1.33-2.74,1.24-2.49,3.52-5,7-7.32,10.68a6.72,6.72,0,0,1-6.12,3.51c-3.66,0-7.32,0-11,.07-2.52,0-3.51-.61-1.73-3.1,2-2.84,3.82-5.83,5.73-8.73.79-1.2,1.39-2.68.2-3.61-1.56-1.22-2.29.56-3,1.55A90.07,90.07,0,0,0,488,18.8c-1.86,3.4-4.51,4.57-8.12,4.48-4.33-.1-8.66-.13-13-.15-1.93,0-5-.72-5.09,1.63-.11,2.94,3,1.48,4.71,1.53,5.18.16,10.37.06,16.15.06-5.72,8.83-11.69,16.5-15.57,25.3-2.12,4.81-6,6.31-10.23,7.68-2.69.86-3.69-.35-3.43-3,.33-3.41,2.09-6.27,3.46-9.27.69-1.53,1.88-3.32.42-4.56-1.75-1.49-3,.48-4,1.69-2.44,3.16-5.5,4.13-9.47,4.13-5.76,0-10.49,2.86-14.28,7.15-1.33,1.51-2.53,3.1-1.2,5.33s3.36,1.68,5.31,1.55c1.75-.11,3-1.19,4.47-2L448.88,54c0,8.69,2.45,10.39,10.35,7.67a6.79,6.79,0,0,0,.92-.37c2-1.09,3.18-1.4,3.19,1.81,0,6.2,2.27,7.54,8.19,5.42,5.25-1.88,9.84-5,14.76-7.9-.36,9,2.12,10.66,10.32,7a75.61,75.61,0,0,0,12.52-7.16c.85-.59,1.65-2,3-1,3.61,2.79,6.61.42,9.62-1.15,2.44-1.28,4.71-2.87,7.06-4.32a52.42,52.42,0,0,1-15,22.06c-7.42,6.56-15.3,12.84-20.66,21.46-1.59,2.57-4.54,5.83-1.7,8.43s5.79-.83,8-2.69c8.4-7,14.58-15.89,20.44-25a33.31,33.31,0,0,1,11.24-11c4.44-2.61,8.79-5.35,13.17-8,1.19-.73,3.48-1.14,2.72-2.84-1-2.19-3-1.21-4.74-.34-3.39,1.74-6.79,3.46-10.19,5.19,1.28-4.74,3.33-8.66,5.25-12.64.62-1.31,1.4-3-.06-4.13s-2.78-.22-4,.83c-2.28,1.95-4.52,3.95-6.94,5.7-3.41,2.48-6.58,5.52-11.35,6.09.45-3.7,2.9-6.14,4-9.13.62-1.62,3.42-3.61,1.38-4.86s-3.28,1.81-4,3.41c-3.93,8.74-11.63,13.3-19.34,17.85-2.09,1.23-4.71,3.19-6.86,1.47s-.58-4.61.28-6.91c4.06-10.85,10.94-20,17.34-29.53,1.72-2.54,3.65-3.21,6.58-3.19,14.48.09,29,.42,43.42-.92,2.37-.22,4.9-.08,6.63-2.3A3.83,3.83,0,0,0,561.07,21.85ZM433.77,57.61c2.77-4.28,7-5.88,13.16-6.85C442.45,54.75,438.61,57.06,433.77,57.61Zm63.29,41.23c2-1.17,1.32-5.25,6-4.5-2,2.19-3.35,4.1-6,4.5Zm-8.29-45.52c-4,6.2-11.33,10.06-18.59,12.73-3.11,1.14-4.32-.56-3.72-3.65a40.63,40.63,0,0,1,4.39-11,224.4,224.4,0,0,1,13.86-21.77,6.79,6.79,0,0,1,6.59-3.35c4.46.25,9,.07,14.29.07C499.71,35.73,494.34,44.64,488.77,53.32Z" transform="translate(-0.01 0.02)"/><path class="cls-1" d="M429.33,7.94c-1.68-3.08-4.71-1.44-7.14-.54-8.27,3-16.58,6.27-23.76,11.33C378.2,33,355.85,42.26,332.18,49c-13.25,3.75-26.5,7.22-40.41,8.43.74,3.26,2.93,2.91,4.83,2.68,9.9-1.21,19.81-2.42,29.39-5.38,10.36-3.2,20.75-6.32,31.54-9.6-1.34,2.56-3.31,3.63-5,5-8.39,6.84-16.76,13.71-23.89,21.9-4.06,4.66-7.74,9.6-9.45,15.66-1.47,5.18.83,8.89,6.06,10a19.38,19.38,0,0,0,7,0,98,98,0,0,0,28.39-9c7.41-3.63,14.63-7.54,23.13-11.93-4.67,7.31-8.77,13.45-12.56,19.77-1.31,2.18-4.76,5.35-1.73,7.13,2.79,1.65,4.4-2.78,5.7-5a328.69,328.69,0,0,1,19.88-29.82c5.71-7.76,11.37-15.64,22.71-14.81a4.51,4.51,0,0,0,1.87-.63c1.6-.69,4.19-1,3.66-3.2-.46-1.89-3-1.17-4.41-.82-15,3.62-30.29,6.12-45.43,9.2-1.56.31-4.35.61-3.61,3.08.62,2.06,3,.8,4.4.46a193.1,193.1,0,0,1,23.57-4.59c-3.74,6.75-9.43,10.77-15.36,14.47-15,9.33-30.51,17.59-48.12,20.82-3.61.66-8.22,2-10.67-1.71-2.13-3.25.58-7,2.6-9.43C342.9,61.21,361.77,43.53,387.1,34c7.14-2.68,14.15-5.73,21.15-8.76A70.12,70.12,0,0,0,426,14.4C428,12.72,431,10.94,429.33,7.94ZM396.13,25.2c7.63-5.33,15.49-9.88,24.38-12.32C413.17,18.65,405.26,23.3,396.13,25.2Z" transform="translate(-0.01 0.02)"/><path class="cls-1" d="M60.51,105.78A111.69,111.69,0,0,1,27,69.39c-1.18-2.08-2.1-3.88,1.79-4.07C46.2,64.44,62.29,58.73,77.66,51c9.66-4.84,19-10.59,25-20,5.46-8.56,1.75-16.22-8.23-17.82A73.59,73.59,0,0,0,72.06,13c-5.29.76-10.59,1.42-16.34,2.19,1.84-3.31,3.5-6,4.85-8.81.56-1.16,2.09-2.89.07-3.88C59,1.7,58.42,3.66,58,4.71,54,14,46.88,19.13,36.85,20.34A20.5,20.5,0,0,0,33,21.42c-8.21,2.7-16.4,5.46-23.6,10.4-1.18.8-3.11,1.81-2.25,3.32,1.15,2,2.6,0,3.7-.64,11-6.33,23-10.12,36.3-13.2C38.76,33.55,31,45.07,22.89,56.37c-.77,1.07-2.4,3.93-4.95,1.81-1.11-.92-2.22-1.76-3.45-.5-1.42,1.46-.49,3.14.66,3.88,3.25,2.1,1.7,3.74.1,5.91C10.7,73.61,6.31,79.86,2,86.16,1,87.56-.55,88.89.2,91.57c8.2-7.26,13.79-16.3,21-25A102.87,102.87,0,0,0,41,94.53c16,16.15,34.41,28.19,56.9,33.05a32.88,32.88,0,0,0,20-1.74C91.49,125,77.43,117.66,60.51,105.78Zm-9.1-84.14a5,5,0,0,1,3.2-2.22c13.08-2.37,26.17-5,39.52-2.22,7.27,1.49,9.11,5.67,4.83,11.86-5.91,8.54-14.55,14-23.63,18.53C60.7,54.9,45.33,60,28.91,61.39a38.36,38.36,0,0,1-4-.26C34.08,47.42,42.77,34.53,51.41,21.64Z" transform="translate(-0.01 0.02)"/></svg>