<svg width="68" height="68" viewBox="0 0 68 68" fill="none" xmlns="http://www.w3.org/2000/svg">
<rect width="68" height="68" fill="#05CD77"/>
<path d="M21.4769 50V17.2727H34.9961C37.4464 17.2727 39.5611 17.7148 41.3402 18.5991C43.13 19.4727 44.5096 20.7298 45.479 22.3704C46.4485 24.0004 46.9332 25.9339 46.9332 28.1712C46.9332 30.4403 46.4379 32.3686 45.4471 33.956C44.4563 35.5327 43.0501 36.7365 41.2283 37.5675C39.4066 38.3878 37.2493 38.7979 34.7564 38.7979H26.207V32.5657H33.2862C34.4794 32.5657 35.4755 32.4112 36.2745 32.1023C37.0842 31.7827 37.6967 31.3033 38.1122 30.6641C38.5277 30.0142 38.7354 29.1832 38.7354 28.1712C38.7354 27.1591 38.5277 26.3228 38.1122 25.6623C37.6967 24.9911 37.0842 24.4904 36.2745 24.1602C35.4648 23.8192 34.4688 23.6488 33.2862 23.6488H29.3871V50H21.4769ZM39.902 35.0426L48.0518 50H39.4226L31.4325 35.0426H39.902Z" fill="white"/>
</svg>
